<svg xmlns="http://www.w3.org/2000/svg" viewBox="0 0 200 200" width="200" height="200">
  <!-- Whole lychee (right, behind) -->
  <path d="M143.1,106.1 
Q149.0,115.0 143.1,123.9    Q144.9,134.5 136.1,139.9    Q133.6,150.2 123.6,151.0    Q117.1,158.9 108.0,155.0    Q98.9,158.9 92.4,151.0    Q82.4,150.2 79.9,139.9    Q71.1,134.5 72.9,123.9    Q67.0,115.0 72.9,106.1    Q71.1,95.5 79.9,90.1    Q82.4,79.8 92.4,79.0    Q98.9,71.1 108.0,75.0    Q117.1,71.1 123.6,79.0    Q133.6,79.8 136.1,90.1    Q144.9,95.5 143.1,106.1 Z" fill="#E53935"/>
  
  <!-- Half lychee (left, in front) -->
  <clipPath id="half">
    <rect x="0" y="0" width="80" height="200"/>
  </clipPath>
  <path d="M115.1,106.1 
Q121.0,115.0 115.1,123.9    Q116.9,134.5 108.1,139.9    Q105.6,150.2 95.6,151.0    Q89.1,158.9 80.0,155.0    Q70.9,158.9 64.4,151.0    Q54.4,150.2 51.9,139.9    Q43.1,134.5 44.9,123.9    Q39.0,115.0 44.9,106.1    Q43.1,95.5 51.9,90.1    Q54.4,79.8 64.4,79.0    Q70.9,71.1 80.0,75.0    Q89.1,71.1 95.6,79.0    Q105.6,79.8 108.1,90.1    Q116.9,95.5 115.1,106.1 Z" fill="#E53935" clip-path="url(#half)"/>
  
  <!-- Inner white flesh of half -->
  <ellipse cx="72" cy="115" rx="24" ry="28" fill="white" opacity="0.15"/>
  
  <!-- Seed -->
  <ellipse cx="74" cy="115" rx="10" ry="12" fill="#5D4037" opacity="0.6"/>
  
  <!-- Highlight on whole -->
  <ellipse cx="94" cy="98" rx="10" ry="14" fill="white" opacity="0.12"/>

  <!-- Shared stem -->
  <path d="M94 76 C92 58 90 42 86 28" stroke="#2E7D32" stroke-width="3" fill="none" stroke-linecap="round"/>
  <path d="M94 76 C96 60 100 46 106 32" stroke="#2E7D32" stroke-width="3" fill="none" stroke-linecap="round"/>

  <!-- Leaf -->
  <path d="M86 32 C76 20 62 16 52 22 C62 26 76 30 86 32Z" fill="#43A047"/>
  <path d="M106 36 C116 24 130 20 140 26 C130 30 116 34 106 36Z" fill="#43A047"/>
</svg>